<?xml version="1.0" encoding="UTF-8" standalone="no"?><!-- Generator: Gravit.io --><svg xmlns="http://www.w3.org/2000/svg" xmlns:xlink="http://www.w3.org/1999/xlink" style="isolation:isolate" viewBox="219.982 207.326 275.79 103.176" width="275.79pt" height="103.176pt"><defs><clipPath id="_clipPath_zDh7nSPbAVuO3VuXMVpZh5Eex17qYuOX"><rect x="219.982" y="207.326" width="275.79" height="103.176"/></clipPath></defs><g clip-path="url(#_clipPath_zDh7nSPbAVuO3VuXMVpZh5Eex17qYuOX)"><text transform="matrix(1,0,0,1,280.772,276.302)" style="font-family:'Teko';font-weight:500;font-size:72px;font-style:normal;fill:#dddddd;stroke:none;">| Planer </text><text transform="matrix(1,0,0,1,468.26,276.302)" style="font-family:'Teko';font-weight:500;font-size:72px;font-style:normal;fill:#ff6f00;stroke:none;">T</text><g><rect x="219.982" y="230.364" width="45.554" height="45.554" transform="matrix(1,0,0,1,0,0)" fill="rgb(255,111,0)"/><path d=" M 250.141 230.364 L 257.496 230.364 C 257.289 230.765 257.171 231.22 257.171 231.703 C 257.171 233.31 258.472 234.614 260.074 234.614 C 261.677 234.614 262.977 233.31 262.977 231.703 C 262.977 231.22 262.86 230.765 262.652 230.364 L 262.652 230.364 L 265.535 230.364 L 265.535 234.661 L 265.535 234.661 L 265.535 234.661 L 265.535 234.661 L 265.535 234.661 L 265.535 234.661 L 265.535 234.661 C 265.367 234.63 265.193 234.614 265.016 234.614 C 263.414 234.614 262.113 235.919 262.113 237.526 C 262.113 239.133 263.414 240.437 265.016 240.437 C 265.193 240.437 265.367 240.421 265.535 240.391 L 265.535 244.771 C 265.187 244.584 264.789 244.477 264.367 244.477 C 263.001 244.477 261.892 245.589 261.892 246.959 C 261.892 248.329 263.001 249.441 264.367 249.441 C 264.789 249.441 265.187 249.334 265.535 249.147 L 265.535 249.147 L 265.535 249.147 L 265.535 249.147 L 265.535 249.147 L 265.535 253.838 C 263.894 255.124 262.838 257.126 262.838 259.374 C 262.838 261.622 263.894 263.625 265.535 264.91 L 265.535 264.91 L 265.535 264.91 L 265.535 264.91 L 265.535 264.91 L 265.535 264.91 L 265.535 275.918 L 256.219 275.918 L 247.7 275.918 L 243.255 275.918 L 243.255 275.918 L 243.255 275.918 L 243.255 275.918 L 243.255 275.918 C 242.754 275.042 241.813 274.453 240.736 274.453 C 239.658 274.453 238.717 275.042 238.216 275.918 L 226.753 275.918 L 226.753 275.918 L 226.753 275.918 C 227.888 274.483 228.567 272.668 228.567 270.696 C 228.567 266.054 224.809 262.286 220.18 262.286 C 220.114 262.286 220.048 262.286 219.982 262.288 L 219.982 259.244 C 220.624 259.33 221.279 259.374 221.944 259.374 C 230.054 259.374 236.638 252.771 236.638 244.638 C 236.638 237.773 231.946 231.997 225.605 230.364 L 225.605 230.364 L 225.605 230.364 L 232.079 230.364 L 232.079 230.364 C 232.042 230.55 232.022 230.743 232.022 230.94 C 232.022 232.547 233.323 233.852 234.925 233.852 C 236.528 233.852 237.829 232.547 237.829 230.94 C 237.829 230.743 237.809 230.55 237.772 230.364 L 247.261 230.364 C 247.19 230.542 247.151 230.737 247.151 230.94 C 247.151 231.798 247.846 232.495 248.701 232.495 C 249.556 232.495 250.251 231.798 250.251 230.94 C 250.251 230.737 250.212 230.542 250.141 230.364 Z  M 234.004 264.448 C 234.004 260.574 237.141 257.428 241.005 257.428 C 244.868 257.428 248.005 260.574 248.005 264.448 C 248.005 268.323 244.868 271.469 241.005 271.469 C 237.141 271.469 234.004 268.323 234.004 264.448 L 234.004 264.448 L 234.004 264.448 L 234.004 264.448 L 234.004 264.448 L 234.004 264.448 L 234.004 264.448 L 234.004 264.448 L 234.004 264.448 L 234.004 264.448 L 234.004 264.448 L 234.004 264.448 L 234.004 264.448 L 234.004 264.448 L 234.004 264.448 L 234.004 264.448 L 234.004 264.448 L 234.004 264.448 L 234.004 264.448 L 234.004 264.448 L 234.004 264.448 L 234.004 264.448 L 234.004 264.448 L 234.004 264.448 L 234.004 264.448 L 234.004 264.448 Z  M 245.233 252.493 C 245.233 247.851 248.991 244.082 253.62 244.082 C 258.248 244.082 262.006 247.851 262.006 252.493 C 262.006 257.135 258.248 260.903 253.62 260.903 C 248.991 260.903 245.233 257.135 245.233 252.493 L 245.233 252.493 L 245.233 252.493 L 245.233 252.493 L 245.233 252.493 L 245.233 252.493 L 245.233 252.493 L 245.233 252.493 L 245.233 252.493 L 245.233 252.493 L 245.233 252.493 L 245.233 252.493 L 245.233 252.493 L 245.233 252.493 L 245.233 252.493 L 245.233 252.493 L 245.233 252.493 L 245.233 252.493 L 245.233 252.493 L 245.233 252.493 L 245.233 252.493 L 245.233 252.493 L 245.233 252.493 L 245.233 252.493 L 245.233 252.493 Z  M 236.638 238.591 C 236.638 234.716 239.775 231.57 243.639 231.57 C 247.502 231.57 250.639 234.716 250.639 238.591 C 250.639 242.466 247.502 245.611 243.639 245.611 C 239.775 245.611 236.638 242.466 236.638 238.591 L 236.638 238.591 L 236.638 238.591 L 236.638 238.591 L 236.638 238.591 L 236.638 238.591 L 236.638 238.591 L 236.638 238.591 L 236.638 238.591 L 236.638 238.591 L 236.638 238.591 L 236.638 238.591 L 236.638 238.591 L 236.638 238.591 L 236.638 238.591 L 236.638 238.591 L 236.638 238.591 L 236.638 238.591 L 236.638 238.591 L 236.638 238.591 L 236.638 238.591 L 236.638 238.591 L 236.638 238.591 Z  M 251.471 271.156 C 251.471 268.528 253.598 266.395 256.219 266.395 C 258.839 266.395 260.967 268.528 260.967 271.156 C 260.967 273.784 258.839 275.918 256.219 275.918 L 256.219 275.918 C 253.598 275.918 251.471 273.784 251.471 271.156 L 251.471 271.156 L 251.471 271.156 L 251.471 271.156 L 251.471 271.156 L 251.471 271.156 L 251.471 271.156 L 251.471 271.156 L 251.471 271.156 L 251.471 271.156 L 251.471 271.156 L 251.471 271.156 L 251.471 271.156 L 251.471 271.156 L 251.471 271.156 L 251.471 271.156 L 251.471 271.156 L 251.471 271.156 L 251.471 271.156 L 251.471 271.156 L 251.471 271.156 Z  M 237.832 250.505 C 237.832 248.898 239.133 247.593 240.736 247.593 C 242.338 247.593 243.639 248.898 243.639 250.505 C 243.639 252.111 242.338 253.416 240.736 253.416 C 239.133 253.416 237.832 252.111 237.832 250.505 L 237.832 250.505 L 237.832 250.505 L 237.832 250.505 L 237.832 250.505 L 237.832 250.505 L 237.832 250.505 L 237.832 250.505 L 237.832 250.505 L 237.832 250.505 L 237.832 250.505 L 237.832 250.505 L 237.832 250.505 L 237.832 250.505 L 237.832 250.505 L 237.832 250.505 L 237.832 250.505 L 237.832 250.505 L 237.832 250.505 L 237.832 250.505 Z  M 226.858 262.286 C 226.858 260.679 228.159 259.374 229.761 259.374 C 231.363 259.374 232.664 260.679 232.664 262.286 C 232.664 263.892 231.363 265.197 229.761 265.197 C 228.159 265.197 226.858 263.892 226.858 262.286 L 226.858 262.286 L 226.858 262.286 L 226.858 262.286 L 226.858 262.286 L 226.858 262.286 L 226.858 262.286 L 226.858 262.286 L 226.858 262.286 L 226.858 262.286 L 226.858 262.286 L 226.858 262.286 L 226.858 262.286 L 226.858 262.286 L 226.858 262.286 L 226.858 262.286 L 226.858 262.286 L 226.858 262.286 L 226.858 262.286 Z  M 229.761 272.333 C 229.761 270.726 231.062 269.422 232.664 269.422 C 234.266 269.422 235.567 270.726 235.567 272.333 C 235.567 273.94 234.266 275.245 232.664 275.245 C 231.062 275.245 229.761 273.94 229.761 272.333 L 229.761 272.333 L 229.761 272.333 L 229.761 272.333 L 229.761 272.333 L 229.761 272.333 L 229.761 272.333 L 229.761 272.333 L 229.761 272.333 L 229.761 272.333 L 229.761 272.333 L 229.761 272.333 L 229.761 272.333 L 229.761 272.333 L 229.761 272.333 L 229.761 272.333 L 229.761 272.333 L 229.761 272.333 Z  M 245.326 273.537 C 245.326 272.223 246.39 271.156 247.7 271.156 C 249.011 271.156 250.074 272.223 250.074 273.537 C 250.074 274.851 249.011 275.918 247.7 275.918 L 247.7 275.918 C 246.39 275.918 245.326 274.851 245.326 273.537 L 245.326 273.537 L 245.326 273.537 L 245.326 273.537 L 245.326 273.537 L 245.326 273.537 L 245.326 273.537 L 245.326 273.537 L 245.326 273.537 L 245.326 273.537 L 245.326 273.537 L 245.326 273.537 L 245.326 273.537 L 245.326 273.537 L 245.326 273.537 L 245.326 273.537 Z  M 232.022 257.387 C 232.022 256.29 232.91 255.399 234.004 255.399 C 235.098 255.399 235.986 256.29 235.986 257.387 C 235.986 258.484 235.098 259.374 234.004 259.374 C 232.91 259.374 232.022 258.484 232.022 257.387 L 232.022 257.387 L 232.022 257.387 L 232.022 257.387 L 232.022 257.387 L 232.022 257.387 L 232.022 257.387 L 232.022 257.387 L 232.022 257.387 L 232.022 257.387 L 232.022 257.387 L 232.022 257.387 L 232.022 257.387 L 232.022 257.387 L 232.022 257.387 Z  M 254.775 241.211 C 254.775 239.627 256.057 238.341 257.637 238.341 C 259.217 238.341 260.5 239.627 260.5 241.211 C 260.5 242.796 259.217 244.082 257.637 244.082 C 256.057 244.082 254.775 242.796 254.775 241.211 L 254.775 241.211 L 254.775 241.211 L 254.775 241.211 L 254.775 241.211 L 254.775 241.211 L 254.775 241.211 L 254.775 241.211 L 254.775 241.211 L 254.775 241.211 L 254.775 241.211 L 254.775 241.211 L 254.775 241.211 L 254.775 241.211 Z  M 250.074 263.719 C 250.074 262.705 250.895 261.882 251.906 261.882 C 252.917 261.882 253.738 262.705 253.738 263.719 C 253.738 264.733 252.917 265.556 251.906 265.556 C 250.895 265.556 250.074 264.733 250.074 263.719 L 250.074 263.719 L 250.074 263.719 L 250.074 263.719 L 250.074 263.719 L 250.074 263.719 L 250.074 263.719 L 250.074 263.719 L 250.074 263.719 L 250.074 263.719 L 250.074 263.719 L 250.074 263.719 Z  M 256.843 263.719 C 256.843 262.032 258.209 260.663 259.891 260.663 C 261.573 260.663 262.939 262.032 262.939 263.719 C 262.939 265.406 261.573 266.776 259.891 266.776 C 258.209 266.776 256.843 265.406 256.843 263.719 L 256.843 263.719 L 256.843 263.719 L 256.843 263.719 L 256.843 263.719 L 256.843 263.719 L 256.843 263.719 L 256.843 263.719 L 256.843 263.719 L 256.843 263.719 L 256.843 263.719 Z  M 250.617 233.852 C 250.617 232.245 251.918 230.94 253.521 230.94 C 255.123 230.94 256.424 232.245 256.424 233.852 C 256.424 235.459 255.123 236.763 253.521 236.763 C 251.918 236.763 250.617 235.459 250.617 233.852 L 250.617 233.852 L 250.617 233.852 L 250.617 233.852 L 250.617 233.852 L 250.617 233.852 L 250.617 233.852 L 250.617 233.852 L 250.617 233.852 L 250.617 233.852 Z  M 257.4 236.549 C 257.4 235.691 258.094 234.995 258.95 234.995 C 259.805 234.995 260.5 235.691 260.5 236.549 C 260.5 237.407 259.805 238.103 258.95 238.103 C 258.094 238.103 257.4 237.407 257.4 236.549 L 257.4 236.549 L 257.4 236.549 L 257.4 236.549 L 257.4 236.549 L 257.4 236.549 Z  M 251.675 238.883 C 251.675 238.025 252.369 237.329 253.225 237.329 C 254.08 237.329 254.775 238.025 254.775 238.883 C 254.775 239.741 254.08 240.437 253.225 240.437 C 252.369 240.437 251.675 239.741 251.675 238.883 L 251.675 238.883 L 251.675 238.883 L 251.675 238.883 L 251.675 238.883 Z  M 250.813 242.375 C 250.813 241.517 251.508 240.821 252.363 240.821 C 253.218 240.821 253.913 241.517 253.913 242.375 C 253.913 243.233 253.218 243.929 252.363 243.929 C 251.508 243.929 250.813 243.233 250.813 242.375 L 250.813 242.375 L 250.813 242.375 L 250.813 242.375 Z  M 241.005 255.399 C 241.005 254.541 241.699 253.845 242.555 253.845 C 243.41 253.845 244.104 254.541 244.104 255.399 C 244.104 256.257 243.41 256.953 242.555 256.953 C 241.699 256.953 241.005 256.257 241.005 255.399 L 241.005 255.399 L 241.005 255.399 Z  M 260.967 241.991 C 260.967 241.134 261.661 240.437 262.517 240.437 C 263.372 240.437 264.066 241.134 264.066 241.991 C 264.066 242.849 263.372 243.546 262.517 243.546 C 261.661 243.546 260.967 242.849 260.967 241.991 L 260.967 241.991 Z " fill-rule="evenodd" fill="rgb(255,255,255)"/></g></g></svg>